<?xml version="1.0"?>
<svg xmlns="http://www.w3.org/2000/svg" xmlns:xlink="http://www.w3.org/1999/xlink" version="1.1" viewBox="0 0 192 192" width="26px" height="26px"><g transform=""><g fill="none" fill-rule="nonzero" stroke="none" stroke-width="1" stroke-linecap="butt" stroke-linejoin="miter" stroke-miterlimit="10" stroke-dasharray="" stroke-dashoffset="0" font-family="none" font-weight="none" font-size="none" text-anchor="none" style="mix-blend-mode: normal"><path d="M0,192v-192h192v192z" fill="#ffffff"/><g fill="#000000"><g id="surface1"><path d="M102,0c-43.81731,0 -71.85577,31.70192 -72.46154,73.84615h-25.84615c-1.47116,0 -3,0.83654 -3,2.30769c-0.75,1.47116 -0.75,2.94231 0,3.69231l44.30769,56.76923c0.75,0.75 1.52884,1.38462 3,1.38462c1.47116,0 2.25,-0.63461 3,-1.38462l44.30769,-56.76923c0.75,-0.75 0.75,-2.22115 0,-3.69231c-0.75,-1.47116 -2.25,-2.30769 -3,-2.30769h-25.84615c0.49038,-55.64423 28.96154,-68.01923 35.53846,-73.15385c1.47116,-0.75 1.47116,-0.69231 0,-0.69231zM144,54.23077c-1.09615,0 -2.25,0.40385 -3,1.15385l-44.30769,56.76923c-0.75,1.47116 -0.69231,2.94231 -0.69231,3.69231c0.75,1.47116 2.25,2.30769 3,2.30769h26.53846c-0.49038,55.64423 -28.96154,68.01923 -35.53846,73.15385c-1.47116,0.75 -1.47116,0.69231 0,0.69231c43.81731,0 71.85577,-31.70192 72.46154,-73.84615h25.15385c1.47116,0 3,-0.83654 3,-2.30769c1.47116,-1.47116 1.44231,-2.9423 0.69231,-3.69231l-44.30769,-56.76923c-0.75,-0.75 -1.90384,-1.15385 -3,-1.15385z"/></g></g><path d="" fill="none"/><path d="" fill="none"/></g></g></svg>
